solid dwolla-logo 101.6MM
facet normal 0.0 0.0 -1.0
  outer loop
    vertex 0.0 101.6 0.0
    vertex 9.524999999999999 92.07499999999999 0.0
    vertex 0.0 0.0 0.0
  endloop
endfacet
facet normal 0.0 0.0 -1.0
  outer loop
    vertex 9.524999999999999 92.07499999999999 0.0
    vertex 0.0 101.6 0.0
    vertex 101.6 101.6 0.0
  endloop
endfacet
facet normal 0.0 0.0 -1.0
  outer loop
    vertex 9.524999999999999 92.07499999999999 0.0
    vertex 101.6 101.6 0.0
    vertex 46.037499999999994 92.07499999999999 0.0
  endloop
endfacet
facet normal 0.0 0.0 -1.0
  outer loop
    vertex 46.037499999999994 92.07499999999999 0.0
    vertex 101.6 101.6 0.0
    vertex 55.5625 92.07499999999999 0.0
  endloop
endfacet
facet normal 0.0 0.0 -1.0
  outer loop
    vertex 46.037499999999994 92.07499999999999 0.0
    vertex 55.5625 92.07499999999999 0.0
    vertex 46.037499999999994 9.524999999999999 0.0
  endloop
endfacet
facet normal 0.0 0.0 -1.0
  outer loop
    vertex 55.5625 92.07499999999999 0.0
    vertex 101.6 101.6 0.0
    vertex 92.07499999999999 92.07499999999999 0.0
  endloop
endfacet
facet normal 0.0 0.0 -1.0
  outer loop
    vertex 92.07499999999999 92.07499999999999 0.0
    vertex 101.6 101.6 0.0
    vertex 92.07499999999999 9.524999999999999 0.0
  endloop
endfacet
facet normal 0.0 0.0 -1.0
  outer loop
    vertex 0.0 0.0 0.0
    vertex 9.524999999999999 9.524999999999999 0.0
    vertex 101.6 0.0 0.0
  endloop
endfacet
facet normal 0.0 0.0 -1.0
  outer loop
    vertex 9.524999999999999 9.524999999999999 0.0
    vertex 0.0 0.0 0.0
    vertex 9.524999999999999 92.07499999999999 0.0
  endloop
endfacet
facet normal 0.0 0.0 -1.0
  outer loop
    vertex 101.6 0.0 0.0
    vertex 9.524999999999999 9.524999999999999 0.0
    vertex 46.037499999999994 9.524999999999999 0.0
  endloop
endfacet
facet normal 0.0 0.0 -1.0
  outer loop
    vertex 101.6 0.0 0.0
    vertex 46.037499999999994 9.524999999999999 0.0
    vertex 55.5625 9.524999999999999 0.0
  endloop
endfacet
facet normal 0.0 0.0 -1.0
  outer loop
    vertex 55.5625 9.524999999999999 0.0
    vertex 46.037499999999994 9.524999999999999 0.0
    vertex 55.5625 92.07499999999999 0.0
  endloop
endfacet
facet normal 0.0 0.0 -1.0
  outer loop
    vertex 101.6 0.0 0.0
    vertex 55.5625 9.524999999999999 0.0
    vertex 92.07499999999999 9.524999999999999 0.0
  endloop
endfacet
facet normal 0.0 0.0 -1.0
  outer loop
    vertex 101.6 0.0 0.0
    vertex 92.07499999999999 9.524999999999999 0.0
    vertex 101.6 101.6 0.0
  endloop
endfacet
facet normal -0.0 1.0 -0.0
  outer loop
    vertex 0.0 101.6 0.0
    vertex 9.524999999999999 101.6 9.524999999999999
    vertex 101.6 101.6 0.0
  endloop
endfacet
facet normal -0.0 1.0 -0.0
  outer loop
    vertex 9.524999999999999 101.6 9.524999999999999
    vertex 0.0 101.6 0.0
    vertex 0.0 101.6 101.59999999999998
  endloop
endfacet
facet normal -0.0 1.0 -0.0
  outer loop
    vertex 9.524999999999999 101.6 9.524999999999999
    vertex 0.0 101.6 101.59999999999998
    vertex 9.524999999999999 101.6 92.07499999999999
  endloop
endfacet
facet normal -0.0 1.0 -0.0
  outer loop
    vertex 9.524999999999999 101.6 92.07499999999999
    vertex 0.0 101.6 101.59999999999998
    vertex 46.037499999999994 101.6 92.07499999999999
  endloop
endfacet
facet normal -0.0 1.0 -0.0
  outer loop
    vertex 46.037499999999994 101.6 92.07499999999999
    vertex 0.0 101.6 101.59999999999998
    vertex 55.5625 101.6 92.07499999999999
  endloop
endfacet
facet normal -0.0 1.0 -0.0
  outer loop
    vertex 55.5625 101.6 92.07499999999999
    vertex 0.0 101.6 101.59999999999998
    vertex 92.07499999999999 101.6 92.07499999999999
  endloop
endfacet
facet normal -0.0 1.0 -0.0
  outer loop
    vertex 101.6 101.6 0.0
    vertex 92.07499999999999 101.6 9.524999999999999
    vertex 101.6 101.6 101.59999999999998
  endloop
endfacet
facet normal -0.0 1.0 -0.0
  outer loop
    vertex 92.07499999999999 101.6 9.524999999999999
    vertex 101.6 101.6 0.0
    vertex 9.524999999999999 101.6 9.524999999999999
  endloop
endfacet
facet normal -0.0 1.0 -0.0
  outer loop
    vertex 92.07499999999999 101.6 9.524999999999999
    vertex 9.524999999999999 101.6 9.524999999999999
    vertex 46.037499999999994 101.6 9.524999999999999
  endloop
endfacet
facet normal -0.0 1.0 -0.0
  outer loop
    vertex 92.07499999999999 101.6 9.524999999999999
    vertex 46.037499999999994 101.6 9.524999999999999
    vertex 55.5625 101.6 9.524999999999999
  endloop
endfacet
facet normal -0.0 1.0 -0.0
  outer loop
    vertex 101.6 101.6 101.59999999999998
    vertex 92.07499999999999 101.6 9.524999999999999
    vertex 92.07499999999999 101.6 92.07499999999999
  endloop
endfacet
facet normal -0.0 1.0 -0.0
  outer loop
    vertex 101.6 101.6 101.59999999999998
    vertex 92.07499999999999 101.6 92.07499999999999
    vertex 0.0 101.6 101.59999999999998
  endloop
endfacet
facet normal -0.0 1.0 -0.0
  outer loop
    vertex 46.037499999999994 101.6 92.07499999999999
    vertex 55.5625 101.6 9.524999999999999
    vertex 46.037499999999994 101.6 9.524999999999999
  endloop
endfacet
facet normal -0.0 1.0 -0.0
  outer loop
    vertex 55.5625 101.6 9.524999999999999
    vertex 46.037499999999994 101.6 92.07499999999999
    vertex 55.5625 101.6 92.07499999999999
  endloop
endfacet
facet normal -1.0 0.0 0.0
  outer loop
    vertex 0.0 101.6 101.59999999999998
    vertex 0.0 0.0 0.0
    vertex 0.0 0.0 101.59999999999997
  endloop
endfacet
facet normal -1.0 0.0 0.0
  outer loop
    vertex 0.0 0.0 0.0
    vertex 0.0 101.6 101.59999999999998
    vertex 0.0 101.6 0.0
  endloop
endfacet
facet normal -0.0 -0.0 1.0
  outer loop
    vertex 92.07499999999999 92.07499999999999 9.524999999999999
    vertex 55.5625 101.6 9.524999999999999
    vertex 55.5625 92.07499999999999 9.524999999999999
  endloop
endfacet
facet normal -0.0 -0.0 1.0
  outer loop
    vertex 55.5625 101.6 9.524999999999999
    vertex 92.07499999999999 92.07499999999999 9.524999999999999
    vertex 92.07499999999999 101.6 9.524999999999999
  endloop
endfacet
facet normal -0.0 -0.0 1.0
  outer loop
    vertex 46.037499999999994 92.07499999999999 9.524999999999999
    vertex 9.524999999999999 101.6 9.524999999999999
    vertex 9.524999999999999 92.07499999999999 9.524999999999999
  endloop
endfacet
facet normal -0.0 -0.0 1.0
  outer loop
    vertex 9.524999999999999 101.6 9.524999999999999
    vertex 46.037499999999994 92.07499999999999 9.524999999999999
    vertex 46.037499999999994 101.6 9.524999999999999
  endloop
endfacet
facet normal -0.0 -0.0 1.0
  outer loop
    vertex 46.037499999999994 0.0 9.524999999999999
    vertex 9.524999999999999 9.524999999999999 9.524999999999999
    vertex 9.524999999999999 0.0 9.524999999999999
  endloop
endfacet
facet normal -0.0 -0.0 1.0
  outer loop
    vertex 9.524999999999999 9.524999999999999 9.524999999999999
    vertex 46.037499999999994 0.0 9.524999999999999
    vertex 46.037499999999994 9.524999999999999 9.524999999999999
  endloop
endfacet
facet normal -0.0 -0.0 1.0
  outer loop
    vertex 92.07499999999999 0.0 9.524999999999999
    vertex 55.5625 9.524999999999999 9.524999999999999
    vertex 55.5625 0.0 9.524999999999999
  endloop
endfacet
facet normal -0.0 -0.0 1.0
  outer loop
    vertex 55.5625 9.524999999999999 9.524999999999999
    vertex 92.07499999999999 0.0 9.524999999999999
    vertex 92.07499999999999 9.524999999999999 9.524999999999999
  endloop
endfacet
facet normal -0.0 1.0 -0.0
  outer loop
    vertex 9.524999999999999 9.524999999999999 9.524999999999999
    vertex 46.037499999999994 9.524999999999999 0.0
    vertex 9.524999999999999 9.524999999999999 0.0
  endloop
endfacet
facet normal -0.0 1.0 -0.0
  outer loop
    vertex 46.037499999999994 9.524999999999999 0.0
    vertex 9.524999999999999 9.524999999999999 9.524999999999999
    vertex 46.037499999999994 9.524999999999999 9.524999999999999
  endloop
endfacet
facet normal 0.0 -1.0 0.0
  outer loop
    vertex 46.037499999999994 92.07499999999999 9.524999999999999
    vertex 9.524999999999999 92.07499999999999 0.0
    vertex 46.037499999999994 92.07499999999999 0.0
  endloop
endfacet
facet normal 0.0 -1.0 0.0
  outer loop
    vertex 9.524999999999999 92.07499999999999 0.0
    vertex 46.037499999999994 92.07499999999999 9.524999999999999
    vertex 9.524999999999999 92.07499999999999 9.524999999999999
  endloop
endfacet
facet normal -0.0 1.0 -0.0
  outer loop
    vertex 55.5625 9.524999999999999 9.524999999999999
    vertex 92.07499999999999 9.524999999999999 0.0
    vertex 55.5625 9.524999999999999 0.0
  endloop
endfacet
facet normal -0.0 1.0 -0.0
  outer loop
    vertex 92.07499999999999 9.524999999999999 0.0
    vertex 55.5625 9.524999999999999 9.524999999999999
    vertex 92.07499999999999 9.524999999999999 9.524999999999999
  endloop
endfacet
facet normal 0.0 -1.0 0.0
  outer loop
    vertex 92.07499999999999 92.07499999999999 9.524999999999999
    vertex 55.5625 92.07499999999999 0.0
    vertex 92.07499999999999 92.07499999999999 0.0
  endloop
endfacet
facet normal 0.0 -1.0 0.0
  outer loop
    vertex 55.5625 92.07499999999999 0.0
    vertex 92.07499999999999 92.07499999999999 9.524999999999999
    vertex 55.5625 92.07499999999999 9.524999999999999
  endloop
endfacet
facet normal -1.0 0.0 0.0
  outer loop
    vertex 9.524999999999999 101.6 92.07499999999999
    vertex 9.524999999999999 92.07499999999999 9.524999999999999
    vertex 9.524999999999999 92.07499999999999 92.07499999999999
  endloop
endfacet
facet normal -1.0 0.0 0.0
  outer loop
    vertex 9.524999999999999 92.07499999999999 9.524999999999999
    vertex 9.524999999999999 101.6 92.07499999999999
    vertex 9.524999999999999 101.6 9.524999999999999
  endloop
endfacet
facet normal -1.0 0.0 0.0
  outer loop
    vertex 9.524999999999999 92.07499999999999 101.59999999999997
    vertex 9.524999999999999 0.0 9.524999999999999
    vertex 9.524999999999999 0.0 101.59999999999997
  endloop
endfacet
facet normal -1.0 0.0 0.0
  outer loop
    vertex 9.524999999999999 0.0 9.524999999999999
    vertex 9.524999999999999 92.07499999999999 101.59999999999997
    vertex 9.524999999999999 9.524999999999999 9.524999999999999
  endloop
endfacet
facet normal -1.0 0.0 0.0
  outer loop
    vertex 9.524999999999999 9.524999999999999 9.524999999999999
    vertex 9.524999999999999 92.07499999999999 101.59999999999997
    vertex 9.524999999999999 9.524999999999999 0.0
  endloop
endfacet
facet normal -1.0 0.0 0.0
  outer loop
    vertex 9.524999999999999 9.524999999999999 0.0
    vertex 9.524999999999999 92.07499999999999 101.59999999999997
    vertex 9.524999999999999 92.07499999999999 0.0
  endloop
endfacet
facet normal -1.0 0.0 0.0
  outer loop
    vertex 9.524999999999999 92.07499999999999 0.0
    vertex 9.524999999999999 92.07499999999999 101.59999999999997
    vertex 9.524999999999999 92.07499999999999 92.07499999999999
  endloop
endfacet
facet normal -1.0 0.0 0.0
  outer loop
    vertex 9.524999999999999 92.07499999999999 0.0
    vertex 9.524999999999999 92.07499999999999 92.07499999999999
    vertex 9.524999999999999 92.07499999999999 9.524999999999999
  endloop
endfacet
facet normal -1.0 0.0 0.0
  outer loop
    vertex 55.5625 101.6 92.07499999999999
    vertex 55.5625 92.07499999999999 9.524999999999999
    vertex 55.5625 92.07499999999999 92.07499999999999
  endloop
endfacet
facet normal -1.0 0.0 0.0
  outer loop
    vertex 55.5625 92.07499999999999 9.524999999999999
    vertex 55.5625 101.6 92.07499999999999
    vertex 55.5625 101.6 9.524999999999999
  endloop
endfacet
facet normal -1.0 0.0 0.0
  outer loop
    vertex 55.5625 92.07499999999999 101.59999999999997
    vertex 55.5625 0.0 9.524999999999999
    vertex 55.5625 0.0 101.59999999999997
  endloop
endfacet
facet normal -1.0 0.0 0.0
  outer loop
    vertex 55.5625 0.0 9.524999999999999
    vertex 55.5625 92.07499999999999 101.59999999999997
    vertex 55.5625 9.524999999999999 9.524999999999999
  endloop
endfacet
facet normal -1.0 0.0 0.0
  outer loop
    vertex 55.5625 9.524999999999999 9.524999999999999
    vertex 55.5625 92.07499999999999 101.59999999999997
    vertex 55.5625 9.524999999999999 0.0
  endloop
endfacet
facet normal -1.0 0.0 0.0
  outer loop
    vertex 55.5625 9.524999999999999 0.0
    vertex 55.5625 92.07499999999999 101.59999999999997
    vertex 55.5625 92.07499999999999 0.0
  endloop
endfacet
facet normal -1.0 0.0 0.0
  outer loop
    vertex 55.5625 92.07499999999999 0.0
    vertex 55.5625 92.07499999999999 101.59999999999997
    vertex 55.5625 92.07499999999999 92.07499999999999
  endloop
endfacet
facet normal -1.0 0.0 0.0
  outer loop
    vertex 55.5625 92.07499999999999 0.0
    vertex 55.5625 92.07499999999999 92.07499999999999
    vertex 55.5625 92.07499999999999 9.524999999999999
  endloop
endfacet
facet normal 1.0 -0.0 -0.0
  outer loop
    vertex 46.037499999999994 92.07499999999999 0.0
    vertex 46.037499999999994 9.524999999999999 9.524999999999999
    vertex 46.037499999999994 9.524999999999999 0.0
  endloop
endfacet
facet normal 1.0 -0.0 -0.0
  outer loop
    vertex 46.037499999999994 101.6 9.524999999999999
    vertex 46.037499999999994 92.07499999999999 92.07499999999999
    vertex 46.037499999999994 92.07499999999999 9.524999999999999
  endloop
endfacet
facet normal 1.0 -0.0 -0.0
  outer loop
    vertex 46.037499999999994 92.07499999999999 92.07499999999999
    vertex 46.037499999999994 101.6 9.524999999999999
    vertex 46.037499999999994 101.6 92.07499999999999
  endloop
endfacet
facet normal 1.0 -0.0 -0.0
  outer loop
    vertex 46.037499999999994 9.524999999999999 9.524999999999999
    vertex 46.037499999999994 0.0 101.59999999999997
    vertex 46.037499999999994 0.0 9.524999999999999
  endloop
endfacet
facet normal 1.0 -0.0 -0.0
  outer loop
    vertex 46.037499999999994 0.0 101.59999999999997
    vertex 46.037499999999994 9.524999999999999 9.524999999999999
    vertex 46.037499999999994 92.07499999999999 101.59999999999997
  endloop
endfacet
facet normal 1.0 -0.0 -0.0
  outer loop
    vertex 46.037499999999994 92.07499999999999 101.59999999999997
    vertex 46.037499999999994 9.524999999999999 9.524999999999999
    vertex 46.037499999999994 92.07499999999999 0.0
  endloop
endfacet
facet normal 1.0 -0.0 -0.0
  outer loop
    vertex 46.037499999999994 92.07499999999999 101.59999999999997
    vertex 46.037499999999994 92.07499999999999 0.0
    vertex 46.037499999999994 92.07499999999999 9.524999999999999
  endloop
endfacet
facet normal 1.0 -0.0 -0.0
  outer loop
    vertex 46.037499999999994 92.07499999999999 101.59999999999997
    vertex 46.037499999999994 92.07499999999999 9.524999999999999
    vertex 46.037499999999994 92.07499999999999 92.07499999999999
  endloop
endfacet
facet normal -0.0 1.0 -0.0
  outer loop
    vertex 0.0 0.0 0.0
    vertex 9.524999999999999 0.0 9.524999999999999
    vertex 101.6 0.0 0.0
  endloop
endfacet
facet normal -0.0 1.0 -0.0
  outer loop
    vertex 9.524999999999999 0.0 9.524999999999999
    vertex 0.0 0.0 0.0
    vertex 0.0 0.0 101.59999999999997
  endloop
endfacet
facet normal -0.0 1.0 -0.0
  outer loop
    vertex 9.524999999999999 0.0 9.524999999999999
    vertex 0.0 0.0 101.59999999999997
    vertex 9.524999999999999 0.0 101.59999999999997
  endloop
endfacet
facet normal -0.0 1.0 -0.0
  outer loop
    vertex 46.037499999999994 0.0 101.59999999999997
    vertex 55.5625 0.0 9.524999999999999
    vertex 46.037499999999994 0.0 9.524999999999999
  endloop
endfacet
facet normal -0.0 1.0 -0.0
  outer loop
    vertex 55.5625 0.0 9.524999999999999
    vertex 46.037499999999994 0.0 101.59999999999997
    vertex 55.5625 0.0 101.59999999999997
  endloop
endfacet
facet normal -0.0 1.0 -0.0
  outer loop
    vertex 101.6 0.0 0.0
    vertex 92.07499999999999 0.0 9.524999999999999
    vertex 101.6 0.0 101.59999999999998
  endloop
endfacet
facet normal -0.0 1.0 -0.0
  outer loop
    vertex 92.07499999999999 0.0 9.524999999999999
    vertex 101.6 0.0 0.0
    vertex 9.524999999999999 0.0 9.524999999999999
  endloop
endfacet
facet normal -0.0 1.0 -0.0
  outer loop
    vertex 92.07499999999999 0.0 9.524999999999999
    vertex 9.524999999999999 0.0 9.524999999999999
    vertex 46.037499999999994 0.0 9.524999999999999
  endloop
endfacet
facet normal -0.0 1.0 -0.0
  outer loop
    vertex 92.07499999999999 0.0 9.524999999999999
    vertex 46.037499999999994 0.0 9.524999999999999
    vertex 55.5625 0.0 9.524999999999999
  endloop
endfacet
facet normal -0.0 1.0 -0.0
  outer loop
    vertex 101.6 0.0 101.59999999999998
    vertex 92.07499999999999 0.0 9.524999999999999
    vertex 92.07499999999999 0.0 101.59999999999998
  endloop
endfacet
facet normal 1.0 -0.0 -0.0
  outer loop
    vertex 92.07499999999999 92.07499999999999 0.0
    vertex 92.07499999999999 9.524999999999999 9.524999999999999
    vertex 92.07499999999999 9.524999999999999 0.0
  endloop
endfacet
facet normal 1.0 -0.0 -0.0
  outer loop
    vertex 92.07499999999999 101.6 9.524999999999999
    vertex 92.07499999999999 92.07499999999999 92.07499999999999
    vertex 92.07499999999999 92.07499999999999 9.524999999999999
  endloop
endfacet
facet normal 1.0 -0.0 -0.0
  outer loop
    vertex 92.07499999999999 92.07499999999999 92.07499999999999
    vertex 92.07499999999999 101.6 9.524999999999999
    vertex 92.07499999999999 101.6 92.07499999999999
  endloop
endfacet
facet normal 1.0 -0.0 -0.0
  outer loop
    vertex 92.07499999999999 9.524999999999999 9.524999999999999
    vertex 92.07499999999999 0.0 101.59999999999998
    vertex 92.07499999999999 0.0 9.524999999999999
  endloop
endfacet
facet normal 1.0 -0.0 -0.0
  outer loop
    vertex 92.07499999999999 0.0 101.59999999999998
    vertex 92.07499999999999 9.524999999999999 9.524999999999999
    vertex 92.07499999999999 92.07499999999999 101.59999999999998
  endloop
endfacet
facet normal 1.0 -0.0 -0.0
  outer loop
    vertex 92.07499999999999 92.07499999999999 101.59999999999998
    vertex 92.07499999999999 9.524999999999999 9.524999999999999
    vertex 92.07499999999999 92.07499999999999 0.0
  endloop
endfacet
facet normal 1.0 -0.0 -0.0
  outer loop
    vertex 92.07499999999999 92.07499999999999 101.59999999999998
    vertex 92.07499999999999 92.07499999999999 0.0
    vertex 92.07499999999999 92.07499999999999 9.524999999999999
  endloop
endfacet
facet normal 1.0 -0.0 -0.0
  outer loop
    vertex 92.07499999999999 92.07499999999999 101.59999999999998
    vertex 92.07499999999999 92.07499999999999 9.524999999999999
    vertex 92.07499999999999 92.07499999999999 92.07499999999999
  endloop
endfacet
facet normal -1.0 0.0 0.0
  outer loop
    vertex 101.6 101.6 101.59999999999998
    vertex 101.6 0.0 0.0
    vertex 101.6 0.0 101.59999999999998
  endloop
endfacet
facet normal -1.0 0.0 0.0
  outer loop
    vertex 101.6 0.0 0.0
    vertex 101.6 101.6 101.59999999999998
    vertex 101.6 101.6 0.0
  endloop
endfacet
facet normal 0.0 1.0 0.0
  outer loop
    vertex 55.5625 92.07499999999999 101.59999999999997
    vertex 92.07499999999999 92.07499999999999 92.07499999999999
    vertex 55.5625 92.07499999999999 92.07499999999999
  endloop
endfacet
facet normal 0.0 1.0 0.0
  outer loop
    vertex 92.07499999999999 92.07499999999999 92.07499999999999
    vertex 55.5625 92.07499999999999 101.59999999999997
    vertex 92.07499999999999 92.07499999999999 101.59999999999998
  endloop
endfacet
facet normal 9.720421222370851e-17 3.435279009416767e-17 -1.0
  outer loop
    vertex 0.0 101.6 101.59999999999998
    vertex 9.524999999999999 92.07499999999999 101.59999999999997
    vertex 0.0 0.0 101.59999999999997
  endloop
endfacet
facet normal 9.720421222370851e-17 3.435279009416767e-17 -1.0
  outer loop
    vertex 9.524999999999999 92.07499999999999 101.59999999999997
    vertex 0.0 101.6 101.59999999999998
    vertex 101.6 101.6 101.59999999999998
  endloop
endfacet
facet normal 9.720421222370851e-17 3.435279009416767e-17 -1.0
  outer loop
    vertex 9.524999999999999 92.07499999999999 101.59999999999997
    vertex 101.6 101.6 101.59999999999998
    vertex 46.037499999999994 92.07499999999999 101.59999999999997
  endloop
endfacet
facet normal 9.720421222370851e-17 3.435279009416767e-17 -1.0
  outer loop
    vertex 46.037499999999994 92.07499999999999 101.59999999999997
    vertex 101.6 101.6 101.59999999999998
    vertex 55.5625 92.07499999999999 101.59999999999997
  endloop
endfacet
facet normal 9.720421222370851e-17 3.435279009416767e-17 -1.0
  outer loop
    vertex 46.037499999999994 92.07499999999999 101.59999999999997
    vertex 55.5625 92.07499999999999 101.59999999999997
    vertex 46.037499999999994 0.0 101.59999999999997
  endloop
endfacet
facet normal 9.720421222370851e-17 3.435279009416767e-17 -1.0
  outer loop
    vertex 55.5625 92.07499999999999 101.59999999999997
    vertex 101.6 101.6 101.59999999999998
    vertex 92.07499999999999 92.07499999999999 101.59999999999998
  endloop
endfacet
facet normal 9.720421222370851e-17 3.435279009416767e-17 -1.0
  outer loop
    vertex 92.07499999999999 92.07499999999999 101.59999999999998
    vertex 101.6 101.6 101.59999999999998
    vertex 92.07499999999999 0.0 101.59999999999998
  endloop
endfacet
facet normal 9.720421222370851e-17 3.435279009416767e-17 -1.0
  outer loop
    vertex 92.07499999999999 0.0 101.59999999999998
    vertex 101.6 101.6 101.59999999999998
    vertex 101.6 0.0 101.59999999999998
  endloop
endfacet
facet normal 9.720421222370851e-17 3.435279009416767e-17 -1.0
  outer loop
    vertex 55.5625 0.0 101.59999999999997
    vertex 46.037499999999994 0.0 101.59999999999997
    vertex 55.5625 92.07499999999999 101.59999999999997
  endloop
endfacet
facet normal 9.720421222370851e-17 3.435279009416767e-17 -1.0
  outer loop
    vertex 9.524999999999999 0.0 101.59999999999997
    vertex 0.0 0.0 101.59999999999997
    vertex 9.524999999999999 92.07499999999999 101.59999999999997
  endloop
endfacet
facet normal 0.0 0.0 1.0
  outer loop
    vertex 92.07499999999999 92.07499999999999 92.07499999999999
    vertex 55.5625 101.6 92.07499999999999
    vertex 55.5625 92.07499999999999 92.07499999999999
  endloop
endfacet
facet normal 0.0 0.0 1.0
  outer loop
    vertex 55.5625 101.6 92.07499999999999
    vertex 92.07499999999999 92.07499999999999 92.07499999999999
    vertex 92.07499999999999 101.6 92.07499999999999
  endloop
endfacet
facet normal 0.0 1.0 0.0
  outer loop
    vertex 9.524999999999999 92.07499999999999 101.59999999999997
    vertex 46.037499999999994 92.07499999999999 92.07499999999999
    vertex 9.524999999999999 92.07499999999999 92.07499999999999
  endloop
endfacet
facet normal 0.0 1.0 0.0
  outer loop
    vertex 46.037499999999994 92.07499999999999 92.07499999999999
    vertex 9.524999999999999 92.07499999999999 101.59999999999997
    vertex 46.037499999999994 92.07499999999999 101.59999999999997
  endloop
endfacet
facet normal 0.0 0.0 1.0
  outer loop
    vertex 46.037499999999994 92.07499999999999 92.07499999999999
    vertex 9.524999999999999 101.6 92.07499999999999
    vertex 9.524999999999999 92.07499999999999 92.07499999999999
  endloop
endfacet
facet normal 0.0 0.0 1.0
  outer loop
    vertex 9.524999999999999 101.6 92.07499999999999
    vertex 46.037499999999994 92.07499999999999 92.07499999999999
    vertex 46.037499999999994 101.6 92.07499999999999
  endloop
endfacet
endsolid dwolla-logo 101.6MM
