solid dwolla-logo 50.8MM
facet normal 0.0 0.0 -1.0
  outer loop
    vertex 0.0 50.8 0.0
    vertex 4.762500000000003 46.037499999999966 0.0
    vertex 0.0 0.0 0.0
  endloop
endfacet
facet normal 0.0 0.0 -1.0
  outer loop
    vertex 4.762500000000003 46.037499999999966 0.0
    vertex 0.0 50.8 0.0
    vertex 50.8 50.8 0.0
  endloop
endfacet
facet normal 0.0 0.0 -1.0
  outer loop
    vertex 4.762500000000003 46.037499999999966 0.0
    vertex 50.8 50.8 0.0
    vertex 23.01874999999998 46.037499999999966 0.0
  endloop
endfacet
facet normal 0.0 0.0 -1.0
  outer loop
    vertex 23.01874999999998 46.037499999999966 0.0
    vertex 50.8 50.8 0.0
    vertex 27.781249999999982 46.037499999999966 0.0
  endloop
endfacet
facet normal 0.0 0.0 -1.0
  outer loop
    vertex 23.01874999999998 46.037499999999966 0.0
    vertex 27.781249999999982 46.037499999999966 0.0
    vertex 23.01874999999998 4.762500000000003 0.0
  endloop
endfacet
facet normal 0.0 0.0 -1.0
  outer loop
    vertex 27.781249999999982 46.037499999999966 0.0
    vertex 50.8 50.8 0.0
    vertex 46.03749999999996 46.037499999999966 0.0
  endloop
endfacet
facet normal 0.0 0.0 -1.0
  outer loop
    vertex 46.03749999999996 46.037499999999966 0.0
    vertex 50.8 50.8 0.0
    vertex 46.03749999999996 4.762500000000003 0.0
  endloop
endfacet
facet normal 0.0 0.0 -1.0
  outer loop
    vertex 0.0 0.0 0.0
    vertex 4.762500000000003 4.762500000000003 0.0
    vertex 50.8 0.0 0.0
  endloop
endfacet
facet normal 0.0 0.0 -1.0
  outer loop
    vertex 4.762500000000003 4.762500000000003 0.0
    vertex 0.0 0.0 0.0
    vertex 4.762500000000003 46.037499999999966 0.0
  endloop
endfacet
facet normal 0.0 0.0 -1.0
  outer loop
    vertex 50.8 0.0 0.0
    vertex 4.762500000000003 4.762500000000003 0.0
    vertex 23.01874999999998 4.762500000000003 0.0
  endloop
endfacet
facet normal 0.0 0.0 -1.0
  outer loop
    vertex 50.8 0.0 0.0
    vertex 23.01874999999998 4.762500000000003 0.0
    vertex 27.781249999999982 4.762500000000003 0.0
  endloop
endfacet
facet normal 0.0 0.0 -1.0
  outer loop
    vertex 27.781249999999982 4.762500000000003 0.0
    vertex 23.01874999999998 4.762500000000003 0.0
    vertex 27.781249999999982 46.037499999999966 0.0
  endloop
endfacet
facet normal 0.0 0.0 -1.0
  outer loop
    vertex 50.8 0.0 0.0
    vertex 27.781249999999982 4.762500000000003 0.0
    vertex 46.03749999999996 4.762500000000003 0.0
  endloop
endfacet
facet normal 0.0 0.0 -1.0
  outer loop
    vertex 50.8 0.0 0.0
    vertex 46.03749999999996 4.762500000000003 0.0
    vertex 50.8 50.8 0.0
  endloop
endfacet
facet normal -0.0 1.0 -0.0
  outer loop
    vertex 0.0 50.8 0.0
    vertex 4.762500000000003 50.8 4.762499999999999
    vertex 50.8 50.8 0.0
  endloop
endfacet
facet normal -0.0 1.0 -0.0
  outer loop
    vertex 4.762500000000003 50.8 4.762499999999999
    vertex 0.0 50.8 0.0
    vertex 0.0 50.8 50.8
  endloop
endfacet
facet normal -0.0 1.0 -0.0
  outer loop
    vertex 4.762500000000003 50.8 4.762499999999999
    vertex 0.0 50.8 50.8
    vertex 4.762500000000003 50.8 46.03749999999996
  endloop
endfacet
facet normal -0.0 1.0 -0.0
  outer loop
    vertex 4.762500000000003 50.8 46.03749999999996
    vertex 0.0 50.8 50.8
    vertex 23.01874999999998 50.8 46.03749999999996
  endloop
endfacet
facet normal -0.0 1.0 -0.0
  outer loop
    vertex 23.01874999999998 50.8 46.03749999999996
    vertex 0.0 50.8 50.8
    vertex 27.781249999999982 50.8 46.03749999999996
  endloop
endfacet
facet normal -0.0 1.0 -0.0
  outer loop
    vertex 27.781249999999982 50.8 46.03749999999996
    vertex 0.0 50.8 50.8
    vertex 46.03749999999996 50.8 46.03749999999996
  endloop
endfacet
facet normal -0.0 1.0 -0.0
  outer loop
    vertex 50.8 50.8 0.0
    vertex 46.03749999999996 50.8 4.762499999999999
    vertex 50.8 50.8 50.8
  endloop
endfacet
facet normal -0.0 1.0 -0.0
  outer loop
    vertex 46.03749999999996 50.8 4.762499999999999
    vertex 50.8 50.8 0.0
    vertex 4.762500000000003 50.8 4.762499999999999
  endloop
endfacet
facet normal -0.0 1.0 -0.0
  outer loop
    vertex 46.03749999999996 50.8 4.762499999999999
    vertex 4.762500000000003 50.8 4.762499999999999
    vertex 23.01874999999998 50.8 4.762499999999999
  endloop
endfacet
facet normal -0.0 1.0 -0.0
  outer loop
    vertex 46.03749999999996 50.8 4.762499999999999
    vertex 23.01874999999998 50.8 4.762499999999999
    vertex 27.781249999999982 50.8 4.762499999999999
  endloop
endfacet
facet normal -0.0 1.0 -0.0
  outer loop
    vertex 50.8 50.8 50.8
    vertex 46.03749999999996 50.8 4.762499999999999
    vertex 46.03749999999996 50.8 46.03749999999996
  endloop
endfacet
facet normal -0.0 1.0 -0.0
  outer loop
    vertex 50.8 50.8 50.8
    vertex 46.03749999999996 50.8 46.03749999999996
    vertex 0.0 50.8 50.8
  endloop
endfacet
facet normal -0.0 1.0 -0.0
  outer loop
    vertex 23.01874999999998 50.8 46.03749999999996
    vertex 27.781249999999982 50.8 4.762499999999999
    vertex 23.01874999999998 50.8 4.762499999999999
  endloop
endfacet
facet normal -0.0 1.0 -0.0
  outer loop
    vertex 27.781249999999982 50.8 4.762499999999999
    vertex 23.01874999999998 50.8 46.03749999999996
    vertex 27.781249999999982 50.8 46.03749999999996
  endloop
endfacet
facet normal -1.0 0.0 0.0
  outer loop
    vertex 0.0 50.8 50.8
    vertex 0.0 0.0 0.0
    vertex 0.0 0.0 50.8
  endloop
endfacet
facet normal -1.0 0.0 0.0
  outer loop
    vertex 0.0 0.0 0.0
    vertex 0.0 50.8 50.8
    vertex 0.0 50.8 0.0
  endloop
endfacet
facet normal 0.0 0.0 1.0
  outer loop
    vertex 46.03749999999996 46.037499999999966 4.762499999999999
    vertex 27.781249999999982 50.8 4.762499999999999
    vertex 27.781249999999982 46.037499999999966 4.762499999999999
  endloop
endfacet
facet normal 0.0 0.0 1.0
  outer loop
    vertex 27.781249999999982 50.8 4.762499999999999
    vertex 46.03749999999996 46.037499999999966 4.762499999999999
    vertex 46.03749999999996 50.8 4.762499999999999
  endloop
endfacet
facet normal 0.0 0.0 1.0
  outer loop
    vertex 23.01874999999998 46.037499999999966 4.762499999999999
    vertex 4.762500000000003 50.8 4.762499999999999
    vertex 4.762500000000003 46.037499999999966 4.762499999999999
  endloop
endfacet
facet normal 0.0 0.0 1.0
  outer loop
    vertex 4.762500000000003 50.8 4.762499999999999
    vertex 23.01874999999998 46.037499999999966 4.762499999999999
    vertex 23.01874999999998 50.8 4.762499999999999
  endloop
endfacet
facet normal 0.0 0.0 1.0
  outer loop
    vertex 23.01874999999998 0.0 4.762499999999999
    vertex 4.762500000000003 4.762500000000003 4.762499999999999
    vertex 4.762500000000003 0.0 4.762499999999999
  endloop
endfacet
facet normal 0.0 0.0 1.0
  outer loop
    vertex 4.762500000000003 4.762500000000003 4.762499999999999
    vertex 23.01874999999998 0.0 4.762499999999999
    vertex 23.01874999999998 4.762500000000003 4.762499999999999
  endloop
endfacet
facet normal 0.0 0.0 1.0
  outer loop
    vertex 46.03749999999996 0.0 4.762499999999999
    vertex 27.781249999999982 4.762500000000003 4.762499999999999
    vertex 27.781249999999982 0.0 4.762499999999999
  endloop
endfacet
facet normal 0.0 0.0 1.0
  outer loop
    vertex 27.781249999999982 4.762500000000003 4.762499999999999
    vertex 46.03749999999996 0.0 4.762499999999999
    vertex 46.03749999999996 4.762500000000003 4.762499999999999
  endloop
endfacet
facet normal -0.0 1.0 -0.0
  outer loop
    vertex 4.762500000000003 4.762500000000003 4.762499999999999
    vertex 23.01874999999998 4.762500000000003 0.0
    vertex 4.762500000000003 4.762500000000003 0.0
  endloop
endfacet
facet normal -0.0 1.0 -0.0
  outer loop
    vertex 23.01874999999998 4.762500000000003 0.0
    vertex 4.762500000000003 4.762500000000003 4.762499999999999
    vertex 23.01874999999998 4.762500000000003 4.762499999999999
  endloop
endfacet
facet normal 0.0 -1.0 0.0
  outer loop
    vertex 23.01874999999998 46.037499999999966 4.762499999999999
    vertex 4.762500000000003 46.037499999999966 0.0
    vertex 23.01874999999998 46.037499999999966 0.0
  endloop
endfacet
facet normal 0.0 -1.0 0.0
  outer loop
    vertex 4.762500000000003 46.037499999999966 0.0
    vertex 23.01874999999998 46.037499999999966 4.762499999999999
    vertex 4.762500000000003 46.037499999999966 4.762499999999999
  endloop
endfacet
facet normal -0.0 1.0 -0.0
  outer loop
    vertex 27.781249999999982 4.762500000000003 4.762499999999999
    vertex 46.03749999999996 4.762500000000003 0.0
    vertex 27.781249999999982 4.762500000000003 0.0
  endloop
endfacet
facet normal -0.0 1.0 -0.0
  outer loop
    vertex 46.03749999999996 4.762500000000003 0.0
    vertex 27.781249999999982 4.762500000000003 4.762499999999999
    vertex 46.03749999999996 4.762500000000003 4.762499999999999
  endloop
endfacet
facet normal 0.0 -1.0 0.0
  outer loop
    vertex 46.03749999999996 46.037499999999966 4.762499999999999
    vertex 27.781249999999982 46.037499999999966 0.0
    vertex 46.03749999999996 46.037499999999966 0.0
  endloop
endfacet
facet normal 0.0 -1.0 0.0
  outer loop
    vertex 27.781249999999982 46.037499999999966 0.0
    vertex 46.03749999999996 46.037499999999966 4.762499999999999
    vertex 27.781249999999982 46.037499999999966 4.762499999999999
  endloop
endfacet
facet normal -1.0 0.0 0.0
  outer loop
    vertex 4.762500000000003 50.8 46.03749999999996
    vertex 4.762500000000003 46.037499999999966 4.762499999999999
    vertex 4.762500000000003 46.037499999999966 46.03749999999996
  endloop
endfacet
facet normal -1.0 0.0 0.0
  outer loop
    vertex 4.762500000000003 46.037499999999966 4.762499999999999
    vertex 4.762500000000003 50.8 46.03749999999996
    vertex 4.762500000000003 50.8 4.762499999999999
  endloop
endfacet
facet normal -1.0 0.0 0.0
  outer loop
    vertex 4.762500000000003 46.037499999999966 50.8
    vertex 4.762500000000003 0.0 4.762499999999999
    vertex 4.762500000000003 0.0 50.8
  endloop
endfacet
facet normal -1.0 0.0 0.0
  outer loop
    vertex 4.762500000000003 0.0 4.762499999999999
    vertex 4.762500000000003 46.037499999999966 50.8
    vertex 4.762500000000003 4.762500000000003 4.762499999999999
  endloop
endfacet
facet normal -1.0 0.0 0.0
  outer loop
    vertex 4.762500000000003 4.762500000000003 4.762499999999999
    vertex 4.762500000000003 46.037499999999966 50.8
    vertex 4.762500000000003 4.762500000000003 0.0
  endloop
endfacet
facet normal -1.0 0.0 0.0
  outer loop
    vertex 4.762500000000003 4.762500000000003 0.0
    vertex 4.762500000000003 46.037499999999966 50.8
    vertex 4.762500000000003 46.037499999999966 0.0
  endloop
endfacet
facet normal -1.0 0.0 0.0
  outer loop
    vertex 4.762500000000003 46.037499999999966 0.0
    vertex 4.762500000000003 46.037499999999966 50.8
    vertex 4.762500000000003 46.037499999999966 46.03749999999996
  endloop
endfacet
facet normal -1.0 0.0 0.0
  outer loop
    vertex 4.762500000000003 46.037499999999966 0.0
    vertex 4.762500000000003 46.037499999999966 46.03749999999996
    vertex 4.762500000000003 46.037499999999966 4.762499999999999
  endloop
endfacet
facet normal -1.0 0.0 0.0
  outer loop
    vertex 27.781249999999982 50.8 46.03749999999996
    vertex 27.781249999999982 46.037499999999966 4.762499999999999
    vertex 27.781249999999982 46.037499999999966 46.03749999999996
  endloop
endfacet
facet normal -1.0 0.0 0.0
  outer loop
    vertex 27.781249999999982 46.037499999999966 4.762499999999999
    vertex 27.781249999999982 50.8 46.03749999999996
    vertex 27.781249999999982 50.8 4.762499999999999
  endloop
endfacet
facet normal -1.0 0.0 0.0
  outer loop
    vertex 27.781249999999982 46.037499999999966 50.79999999999998
    vertex 27.781249999999982 0.0 4.762499999999999
    vertex 27.781249999999982 0.0 50.79999999999998
  endloop
endfacet
facet normal -1.0 0.0 0.0
  outer loop
    vertex 27.781249999999982 0.0 4.762499999999999
    vertex 27.781249999999982 46.037499999999966 50.79999999999998
    vertex 27.781249999999982 4.762500000000003 4.762499999999999
  endloop
endfacet
facet normal -1.0 0.0 0.0
  outer loop
    vertex 27.781249999999982 4.762500000000003 4.762499999999999
    vertex 27.781249999999982 46.037499999999966 50.79999999999998
    vertex 27.781249999999982 4.762500000000003 0.0
  endloop
endfacet
facet normal -1.0 0.0 0.0
  outer loop
    vertex 27.781249999999982 4.762500000000003 0.0
    vertex 27.781249999999982 46.037499999999966 50.79999999999998
    vertex 27.781249999999982 46.037499999999966 0.0
  endloop
endfacet
facet normal -1.0 0.0 0.0
  outer loop
    vertex 27.781249999999982 46.037499999999966 0.0
    vertex 27.781249999999982 46.037499999999966 50.79999999999998
    vertex 27.781249999999982 46.037499999999966 46.03749999999996
  endloop
endfacet
facet normal -1.0 0.0 0.0
  outer loop
    vertex 27.781249999999982 46.037499999999966 0.0
    vertex 27.781249999999982 46.037499999999966 46.03749999999996
    vertex 27.781249999999982 46.037499999999966 4.762499999999999
  endloop
endfacet
facet normal 1.0 0.0 0.0
  outer loop
    vertex 23.01874999999998 46.037499999999966 0.0
    vertex 23.01874999999998 4.762500000000003 4.762499999999999
    vertex 23.01874999999998 4.762500000000003 0.0
  endloop
endfacet
facet normal 1.0 0.0 0.0
  outer loop
    vertex 23.01874999999998 50.8 4.762499999999999
    vertex 23.01874999999998 46.037499999999966 46.03749999999996
    vertex 23.01874999999998 46.037499999999966 4.762499999999999
  endloop
endfacet
facet normal 1.0 0.0 0.0
  outer loop
    vertex 23.01874999999998 46.037499999999966 46.03749999999996
    vertex 23.01874999999998 50.8 4.762499999999999
    vertex 23.01874999999998 50.8 46.03749999999996
  endloop
endfacet
facet normal 1.0 0.0 0.0
  outer loop
    vertex 23.01874999999998 4.762500000000003 4.762499999999999
    vertex 23.01874999999998 0.0 50.79999999999998
    vertex 23.01874999999998 0.0 4.762499999999999
  endloop
endfacet
facet normal 1.0 0.0 0.0
  outer loop
    vertex 23.01874999999998 0.0 50.79999999999998
    vertex 23.01874999999998 4.762500000000003 4.762499999999999
    vertex 23.01874999999998 46.037499999999966 50.79999999999998
  endloop
endfacet
facet normal 1.0 0.0 0.0
  outer loop
    vertex 23.01874999999998 46.037499999999966 50.79999999999998
    vertex 23.01874999999998 4.762500000000003 4.762499999999999
    vertex 23.01874999999998 46.037499999999966 0.0
  endloop
endfacet
facet normal 1.0 0.0 0.0
  outer loop
    vertex 23.01874999999998 46.037499999999966 50.79999999999998
    vertex 23.01874999999998 46.037499999999966 0.0
    vertex 23.01874999999998 46.037499999999966 4.762499999999999
  endloop
endfacet
facet normal 1.0 0.0 0.0
  outer loop
    vertex 23.01874999999998 46.037499999999966 50.79999999999998
    vertex 23.01874999999998 46.037499999999966 4.762499999999999
    vertex 23.01874999999998 46.037499999999966 46.03749999999996
  endloop
endfacet
facet normal -0.0 1.0 -0.0
  outer loop
    vertex 0.0 0.0 0.0
    vertex 4.762500000000003 0.0 4.762499999999999
    vertex 50.8 0.0 0.0
  endloop
endfacet
facet normal -0.0 1.0 -0.0
  outer loop
    vertex 4.762500000000003 0.0 4.762499999999999
    vertex 0.0 0.0 0.0
    vertex 0.0 0.0 50.8
  endloop
endfacet
facet normal -0.0 1.0 -0.0
  outer loop
    vertex 4.762500000000003 0.0 4.762499999999999
    vertex 0.0 0.0 50.8
    vertex 4.762500000000003 0.0 50.8
  endloop
endfacet
facet normal -0.0 1.0 -0.0
  outer loop
    vertex 23.01874999999998 0.0 50.79999999999998
    vertex 27.781249999999982 0.0 4.762499999999999
    vertex 23.01874999999998 0.0 4.762499999999999
  endloop
endfacet
facet normal -0.0 1.0 -0.0
  outer loop
    vertex 27.781249999999982 0.0 4.762499999999999
    vertex 23.01874999999998 0.0 50.79999999999998
    vertex 27.781249999999982 0.0 50.79999999999998
  endloop
endfacet
facet normal -0.0 1.0 -0.0
  outer loop
    vertex 50.8 0.0 0.0
    vertex 46.03749999999996 0.0 4.762499999999999
    vertex 50.8 0.0 50.8
  endloop
endfacet
facet normal -0.0 1.0 -0.0
  outer loop
    vertex 46.03749999999996 0.0 4.762499999999999
    vertex 50.8 0.0 0.0
    vertex 4.762500000000003 0.0 4.762499999999999
  endloop
endfacet
facet normal -0.0 1.0 -0.0
  outer loop
    vertex 46.03749999999996 0.0 4.762499999999999
    vertex 4.762500000000003 0.0 4.762499999999999
    vertex 23.01874999999998 0.0 4.762499999999999
  endloop
endfacet
facet normal -0.0 1.0 -0.0
  outer loop
    vertex 46.03749999999996 0.0 4.762499999999999
    vertex 23.01874999999998 0.0 4.762499999999999
    vertex 27.781249999999982 0.0 4.762499999999999
  endloop
endfacet
facet normal -0.0 1.0 -0.0
  outer loop
    vertex 50.8 0.0 50.8
    vertex 46.03749999999996 0.0 4.762499999999999
    vertex 46.03749999999996 0.0 50.8
  endloop
endfacet
facet normal 1.0 0.0 0.0
  outer loop
    vertex 46.03749999999996 46.037499999999966 0.0
    vertex 46.03749999999996 4.762500000000003 4.762499999999999
    vertex 46.03749999999996 4.762500000000003 0.0
  endloop
endfacet
facet normal 1.0 0.0 0.0
  outer loop
    vertex 46.03749999999996 50.8 4.762499999999999
    vertex 46.03749999999996 46.037499999999966 46.03749999999996
    vertex 46.03749999999996 46.037499999999966 4.762499999999999
  endloop
endfacet
facet normal 1.0 0.0 0.0
  outer loop
    vertex 46.03749999999996 46.037499999999966 46.03749999999996
    vertex 46.03749999999996 50.8 4.762499999999999
    vertex 46.03749999999996 50.8 46.03749999999996
  endloop
endfacet
facet normal 1.0 0.0 0.0
  outer loop
    vertex 46.03749999999996 4.762500000000003 4.762499999999999
    vertex 46.03749999999996 0.0 50.8
    vertex 46.03749999999996 0.0 4.762499999999999
  endloop
endfacet
facet normal 1.0 0.0 0.0
  outer loop
    vertex 46.03749999999996 0.0 50.8
    vertex 46.03749999999996 4.762500000000003 4.762499999999999
    vertex 46.03749999999996 46.037499999999966 50.8
  endloop
endfacet
facet normal 1.0 0.0 0.0
  outer loop
    vertex 46.03749999999996 46.037499999999966 50.8
    vertex 46.03749999999996 4.762500000000003 4.762499999999999
    vertex 46.03749999999996 46.037499999999966 0.0
  endloop
endfacet
facet normal 1.0 0.0 0.0
  outer loop
    vertex 46.03749999999996 46.037499999999966 50.8
    vertex 46.03749999999996 46.037499999999966 0.0
    vertex 46.03749999999996 46.037499999999966 4.762499999999999
  endloop
endfacet
facet normal 1.0 0.0 0.0
  outer loop
    vertex 46.03749999999996 46.037499999999966 50.8
    vertex 46.03749999999996 46.037499999999966 4.762499999999999
    vertex 46.03749999999996 46.037499999999966 46.03749999999996
  endloop
endfacet
facet normal -1.0 0.0 0.0
  outer loop
    vertex 50.8 50.8 50.8
    vertex 50.8 0.0 0.0
    vertex 50.8 0.0 50.8
  endloop
endfacet
facet normal -1.0 0.0 0.0
  outer loop
    vertex 50.8 0.0 0.0
    vertex 50.8 50.8 50.8
    vertex 50.8 50.8 0.0
  endloop
endfacet
facet normal 0.0 1.0 0.0
  outer loop
    vertex 27.781249999999982 46.037499999999966 50.79999999999998
    vertex 46.03749999999996 46.037499999999966 46.03749999999996
    vertex 27.781249999999982 46.037499999999966 46.03749999999996
  endloop
endfacet
facet normal 0.0 1.0 0.0
  outer loop
    vertex 46.03749999999996 46.037499999999966 46.03749999999996
    vertex 27.781249999999982 46.037499999999966 50.79999999999998
    vertex 46.03749999999996 46.037499999999966 50.8
  endloop
endfacet
facet normal 9.720421222370854e-17 3.435279009416773e-17 -1.0
  outer loop
    vertex 0.0 50.8 50.8
    vertex 4.762500000000003 46.037499999999966 50.8
    vertex 0.0 0.0 50.8
  endloop
endfacet
facet normal 9.720421222370854e-17 3.435279009416773e-17 -1.0
  outer loop
    vertex 4.762500000000003 46.037499999999966 50.8
    vertex 0.0 50.8 50.8
    vertex 50.8 50.8 50.8
  endloop
endfacet
facet normal 9.720421222370854e-17 3.435279009416773e-17 -1.0
  outer loop
    vertex 4.762500000000003 46.037499999999966 50.8
    vertex 50.8 50.8 50.8
    vertex 23.01874999999998 46.037499999999966 50.79999999999998
  endloop
endfacet
facet normal 9.720421222370854e-17 3.435279009416773e-17 -1.0
  outer loop
    vertex 23.01874999999998 46.037499999999966 50.79999999999998
    vertex 50.8 50.8 50.8
    vertex 27.781249999999982 46.037499999999966 50.79999999999998
  endloop
endfacet
facet normal 9.720421222370854e-17 3.435279009416773e-17 -1.0
  outer loop
    vertex 23.01874999999998 46.037499999999966 50.79999999999998
    vertex 27.781249999999982 46.037499999999966 50.79999999999998
    vertex 23.01874999999998 0.0 50.79999999999998
  endloop
endfacet
facet normal 9.720421222370854e-17 3.435279009416773e-17 -1.0
  outer loop
    vertex 27.781249999999982 46.037499999999966 50.79999999999998
    vertex 50.8 50.8 50.8
    vertex 46.03749999999996 46.037499999999966 50.8
  endloop
endfacet
facet normal 9.720421222370854e-17 3.435279009416773e-17 -1.0
  outer loop
    vertex 46.03749999999996 46.037499999999966 50.8
    vertex 50.8 50.8 50.8
    vertex 46.03749999999996 0.0 50.8
  endloop
endfacet
facet normal 9.720421222370854e-17 3.435279009416773e-17 -1.0
  outer loop
    vertex 46.03749999999996 0.0 50.8
    vertex 50.8 50.8 50.8
    vertex 50.8 0.0 50.8
  endloop
endfacet
facet normal 9.720421222370854e-17 3.435279009416773e-17 -1.0
  outer loop
    vertex 27.781249999999982 0.0 50.79999999999998
    vertex 23.01874999999998 0.0 50.79999999999998
    vertex 27.781249999999982 46.037499999999966 50.79999999999998
  endloop
endfacet
facet normal 9.720421222370854e-17 3.435279009416773e-17 -1.0
  outer loop
    vertex 4.762500000000003 0.0 50.8
    vertex 0.0 0.0 50.8
    vertex 4.762500000000003 46.037499999999966 50.8
  endloop
endfacet
facet normal 0.0 0.0 1.0
  outer loop
    vertex 46.03749999999996 46.037499999999966 46.03749999999996
    vertex 27.781249999999982 50.8 46.03749999999996
    vertex 27.781249999999982 46.037499999999966 46.03749999999996
  endloop
endfacet
facet normal 0.0 0.0 1.0
  outer loop
    vertex 27.781249999999982 50.8 46.03749999999996
    vertex 46.03749999999996 46.037499999999966 46.03749999999996
    vertex 46.03749999999996 50.8 46.03749999999996
  endloop
endfacet
facet normal 0.0 1.0 0.0
  outer loop
    vertex 4.762500000000003 46.037499999999966 50.8
    vertex 23.01874999999998 46.037499999999966 46.03749999999996
    vertex 4.762500000000003 46.037499999999966 46.03749999999996
  endloop
endfacet
facet normal 0.0 1.0 0.0
  outer loop
    vertex 23.01874999999998 46.037499999999966 46.03749999999996
    vertex 4.762500000000003 46.037499999999966 50.8
    vertex 23.01874999999998 46.037499999999966 50.79999999999998
  endloop
endfacet
facet normal 0.0 0.0 1.0
  outer loop
    vertex 23.01874999999998 46.037499999999966 46.03749999999996
    vertex 4.762500000000003 50.8 46.03749999999996
    vertex 4.762500000000003 46.037499999999966 46.03749999999996
  endloop
endfacet
facet normal 0.0 0.0 1.0
  outer loop
    vertex 4.762500000000003 50.8 46.03749999999996
    vertex 23.01874999999998 46.037499999999966 46.03749999999996
    vertex 23.01874999999998 50.8 46.03749999999996
  endloop
endfacet
endsolid dwolla-logo 50.8MM
